<?xml version="1.0" standalone="no"?>
<!DOCTYPE svg PUBLIC "-//W3C//DTD SVG 20010904//EN"
 "http://www.w3.org/TR/2001/REC-SVG-20010904/DTD/svg10.dtd">
<svg version="1.0" xmlns="http://www.w3.org/2000/svg"
 width="592.000000pt" height="592.000000pt" viewBox="0 0 592.000000 592.000000"
 preserveAspectRatio="xMidYMid meet">
<metadata>
Created by potrace 1.14, written by Peter Selinger 2001-2017
</metadata>
<g transform="translate(0.000000,592.000000) scale(0.100000,-0.100000)"
fill="#000000" stroke="none">
<path d="M1895 5261 c-170 -54 -236 -233 -180 -491 11 -50 71 -186 87 -196 4
-3 6 23 4 57 -7 133 40 242 152 351 86 84 112 154 81 221 -19 42 -96 74 -144
58z"/>
<path d="M2986 5084 c-95 -30 -154 -79 -191 -158 -29 -61 -31 -182 -6 -303 20
-93 21 -92 -54 -149 -30 -22 -57 -30 -158 -45 -301 -46 -541 -154 -715 -322
-41 -41 -76 -67 -80 -61 -5 5 -37 43 -72 84 -133 155 -218 223 -328 261 -176
61 -355 -3 -420 -149 -38 -86 -1 -232 79 -310 28 -28 157 -99 194 -107 5 -1
19 -6 30 -11 11 -4 98 -38 193 -74 l173 -65 5 -157 5 -158 -38 -1 c-65 -2 -99
2 -185 20 -102 21 -167 18 -234 -13 -71 -33 -104 -79 -111 -155 -5 -52 -2 -65
21 -105 56 -96 117 -114 381 -113 278 1 375 -24 375 -96 0 -25 -45 -101 -76
-129 -50 -44 -163 -77 -318 -94 -113 -11 -152 -21 -216 -55 -122 -64 -170
-196 -113 -306 29 -54 45 -70 137 -133 130 -89 250 -105 374 -50 48 22 164 98
202 133 40 36 171 132 220 160 86 49 231 75 264 48 35 -29 23 -109 -34 -236
-61 -137 -58 -289 6 -343 16 -13 58 -38 94 -55 112 -54 231 -41 299 32 51 54
62 100 59 238 -2 106 1 134 16 165 21 44 84 79 152 83 37 3 47 0 58 -18 35
-55 55 -146 81 -377 15 -128 56 -195 166 -270 87 -59 135 -77 204 -78 131 0
200 76 200 219 -1 68 -5 85 -42 162 -23 47 -64 119 -91 159 -63 93 -82 139
-82 194 0 121 117 204 295 209 100 3 149 -15 230 -83 84 -71 184 -141 245
-172 146 -76 386 44 355 178 -9 38 -31 62 -108 116 -88 62 -148 87 -281 120
-180 45 -246 76 -240 114 1 6 2 19 3 27 2 29 62 83 128 115 127 63 256 49 583
-61 113 -38 135 -43 225 -43 88 -1 107 2 155 25 105 50 162 132 164 234 1 81
-24 128 -100 183 -129 93 -209 114 -414 108 -80 -3 -156 -7 -170 -10 -26 -5
-140 -21 -223 -31 -114 -14 -277 1 -292 25 -3 5 -1 57 5 114 19 173 -14 320
-101 449 l-40 61 23 18 c13 10 76 45 141 79 171 88 224 141 213 215 -12 73
-92 164 -183 210 -54 27 -146 36 -208 21 -27 -7 -32 -4 -50 25 -23 40 -94 118
-107 118 -5 0 -30 16 -54 35 -25 19 -59 40 -75 47 -20 9 -29 20 -29 36 0 31
-27 92 -53 121 -35 38 -125 101 -175 124 -63 27 -216 34 -286 11z"/>
<path d="M1385 4852 c-105 -17 -153 -100 -105 -180 30 -49 93 -82 190 -98 119
-21 238 -107 301 -219 17 -30 32 -55 34 -55 1 0 1 26 -1 57 -13 191 -126 398
-254 463 -43 22 -127 39 -165 32z"/>
<path d="M4403 4510 c-59 -37 -79 -71 -108 -189 -8 -35 -27 -85 -41 -111 -25
-46 -109 -140 -125 -140 -4 0 -14 -6 -21 -14 -8 -7 -34 -23 -59 -35 l-44 -21
76 5 c208 14 415 126 479 258 44 93 29 208 -32 246 -33 21 -92 22 -125 1z"/>
<path d="M4584 4104 c-44 -6 -104 -19 -134 -29 -57 -18 -150 -62 -150 -70 0
-2 28 -3 63 -1 133 7 239 -33 349 -131 84 -75 112 -91 170 -99 105 -13 169 82
122 182 -56 118 -222 177 -420 148z"/>
<path d="M2045 2333 c-60 -64 -125 -208 -145 -323 -33 -186 65 -353 208 -354
48 -1 57 2 83 32 28 31 33 49 30 104 -2 41 -15 68 -71 143 -59 78 -86 133 -96
191 -11 64 -7 158 10 197 18 44 15 46 -19 10z"/>
<path d="M1868 2132 c-35 -58 -114 -126 -180 -156 -79 -35 -88 -37 -153 -42
-103 -8 -164 -24 -195 -51 -106 -88 -54 -211 95 -227 44 -5 127 17 178 47 114
67 221 225 262 385 19 72 16 84 -7 44z"/>
</g>
</svg>
